<svg width="424" height="501" viewBox="0 0 424 501" fill="none" xmlns="http://www.w3.org/2000/svg">
<g id="Group 1">
<path id="Vector" d="M96.2234 456.529C94.1134 451.729 92.1134 446.209 94.2234 441.409C95.6006 438.582 97.9667 436.359 100.873 435.159C103.75 433.986 106.782 433.239 109.873 432.939C119.578 431.666 129.398 431.532 139.133 432.539C139.843 438.159 138.343 443.859 137.053 449.289C135.883 454.289 135.213 455.029 130.053 455.289C126.713 455.469 97.0134 458.299 96.2234 456.529Z" fill="#FBBEBE"/>
<path id="Vector_2" d="M185.273 424.149C264.25 424.149 328.273 406.241 328.273 384.149C328.273 362.058 264.25 344.149 185.273 344.149C106.297 344.149 42.2734 362.058 42.2734 384.149C42.2734 406.241 106.297 424.149 185.273 424.149Z" fill="#464353"/>
<path id="Vector_3" opacity="0.1" d="M185.273 424.149C264.25 424.149 328.273 406.241 328.273 384.149C328.273 362.058 264.25 344.149 185.273 344.149C106.297 344.149 42.2734 362.058 42.2734 384.149C42.2734 406.241 106.297 424.149 185.273 424.149Z" fill="black"/>
<path id="Vector_4" d="M210.913 172.989C206.012 182.461 197.871 189.857 187.973 193.829C182.146 195.953 176.014 197.122 169.813 197.289C163.023 197.599 156.093 197.159 149.713 194.839C141.153 191.739 134.043 185.399 128.713 178.009C123.383 170.619 119.713 162.179 116.523 153.669C114.843 149.239 113.243 144.519 114.033 139.839C119.183 138.669 124.823 136.949 127.483 132.379C129.753 128.459 129.123 123.759 127.813 119.279C127.443 118.009 127.013 116.749 126.583 115.539C125.583 112.639 122.133 107.129 124.533 104.649C126.063 103.079 132.473 102.279 134.683 101.259C141.493 98.1193 147.773 93.5793 155.253 92.0893C161.723 90.7993 168.403 92.0093 174.863 93.3493C175.72 93.4739 176.543 93.7698 177.283 94.2193C178.127 94.9304 178.751 95.8668 179.083 96.9193C180.923 101.399 182.003 106.349 183.483 111.019C185.023 115.909 187.003 120.499 190.713 123.969C193.603 126.679 197.283 128.379 200.883 130.029L209.743 134.089C211.319 134.679 212.749 135.604 213.933 136.799C215.092 138.392 215.784 140.275 215.933 142.239C217.521 152.762 215.765 163.518 210.913 172.989V172.989Z" fill="#FBBEBE"/>
<path id="Vector_5" opacity="0.1" d="M183.443 111.019C176.391 118.356 167.104 123.146 157.038 124.641C146.971 126.136 136.694 124.25 127.813 119.279C127.443 118.009 127.013 116.749 126.583 115.539C125.583 112.639 122.133 107.129 124.533 104.649C126.063 103.079 132.473 102.279 134.683 101.259C141.493 98.1193 147.773 93.5793 155.253 92.0893C161.723 90.7993 168.403 92.0093 174.863 93.3493C175.72 93.4739 176.543 93.7698 177.283 94.2193C178.127 94.9304 178.751 95.8668 179.083 96.9193C180.883 101.399 181.963 106.349 183.443 111.019Z" fill="black"/>
<path id="Vector_6" d="M150.273 123.149C175.678 123.149 196.273 102.554 196.273 77.1493C196.273 51.7442 175.678 31.1493 150.273 31.1493C124.868 31.1493 104.273 51.7442 104.273 77.1493C104.273 102.554 124.868 123.149 150.273 123.149Z" fill="#FBBEBE"/>
<path id="Vector_7" d="M290.423 226.439L286.643 203.539C284.733 192.049 282.763 180.339 277.423 169.989C273.913 163.209 268.343 156.749 260.833 155.409C259.354 155.277 257.9 154.941 256.513 154.409C254.313 153.349 253.113 150.969 251.423 149.209C247.063 144.689 239.963 144.619 234.123 142.319C228.963 140.319 224.743 136.469 220.043 133.529C215.343 130.589 209.493 128.529 204.293 130.409C203.453 139.359 202.563 148.509 198.763 156.659C196.29 161.965 192.662 166.651 188.145 170.374C183.628 174.097 178.335 176.764 172.655 178.179C166.975 179.593 161.05 179.721 155.314 178.551C149.578 177.382 144.176 174.945 139.503 171.419C130.593 164.709 124.883 154.359 122.223 143.529C121.573 140.889 120.833 137.859 118.403 136.649C115.773 135.329 112.613 136.929 110.403 138.869C106.353 142.459 103.133 147.599 97.8734 148.809C95.9734 149.249 93.8733 149.159 92.2933 150.309C91.2433 151.278 90.3643 152.418 89.6934 153.679C88.5423 155.306 87.0044 156.62 85.2184 157.503C83.4325 158.387 81.4546 158.811 79.4634 158.739C77.6334 158.649 75.4634 158.229 74.2134 159.559C73.2834 160.559 73.2134 162.119 72.2134 163.049C70.8634 164.359 68.6733 163.719 66.7933 163.649C63.2333 163.499 59.9234 165.779 57.8834 168.649C55.8434 171.519 54.8834 175.069 53.8834 178.509C64.8134 202.849 74.8133 227.219 85.7433 251.559C86.2554 252.477 86.5272 253.509 86.5333 254.559C86.3141 255.65 85.849 256.676 85.1733 257.559C79.8133 266.169 79.9834 276.999 80.5734 287.119C81.1634 297.239 81.8833 307.929 77.3633 316.999C76.1333 319.489 74.5333 321.769 73.3633 324.259C70.6233 329.899 69.6333 347.939 71.2333 353.999H297.233C292.923 342.149 294.563 318.369 295.463 305.789C296.093 296.989 294.463 288.199 293.763 279.399C292.293 261.429 293.393 244.379 290.423 226.439Z" fill="#F86D70"/>
<path id="Vector_8" d="M301.993 346.999C305.323 345.729 308.993 346.189 312.563 346.669C324.053 348.239 335.713 349.849 346.363 354.439C351.363 356.579 356.123 359.439 359.503 363.649C362.503 367.439 364.253 372.079 365.913 376.649L369.753 387.139C371.213 391.139 372.693 395.219 373.103 399.469C374.303 412.059 365.693 423.929 354.863 430.469C344.033 437.009 331.283 439.339 318.863 441.779C306.443 444.219 293.973 446.919 281.603 449.779C275.834 451.277 269.98 452.429 264.073 453.229C250.833 454.729 236.993 452.519 224.413 456.899C219.413 458.649 214.503 461.249 209.313 462.459C205.871 463.214 202.389 463.775 198.883 464.139L175.073 466.859C170.232 467.507 165.357 467.881 160.473 467.979C150.073 467.979 139.843 465.519 129.743 463.059C128.67 462.871 127.647 462.459 126.743 461.849C125.143 460.589 124.793 458.359 124.563 456.339C123.543 447.399 122.65 438.449 121.883 429.489C121.643 426.579 121.463 423.429 123.053 420.979C125.053 417.979 128.953 417.039 132.513 416.459C147.609 413.99 162.901 412.929 178.193 413.289C184.003 407.479 193.583 407.449 201.193 404.289C203.993 403.004 206.702 401.53 209.303 399.879C222.91 391.94 238.115 387.133 253.813 385.809C256.889 385.715 259.944 385.279 262.923 384.509C268.813 382.679 274.183 377.699 280.233 378.919C280.983 376.849 281.503 374.079 283.233 372.659C284.093 371.929 285.153 371.439 285.943 370.659C287.613 368.969 287.763 366.309 287.513 363.949C287.263 361.589 286.703 359.169 287.313 356.869C287.567 355.998 287.941 355.167 288.423 354.399C291.433 349.139 295.963 346.499 301.993 346.999Z" fill="#464353"/>
<path id="Vector_9" opacity="0.05" d="M301.993 346.999C305.323 345.729 308.993 346.189 312.563 346.669C324.053 348.239 335.713 349.849 346.363 354.439C351.363 356.579 356.123 359.439 359.503 363.649C362.503 367.439 364.253 372.079 365.913 376.649L369.753 387.139C371.213 391.139 372.693 395.219 373.103 399.469C374.303 412.059 365.693 423.929 354.863 430.469C344.033 437.009 331.283 439.339 318.863 441.779C306.443 444.219 293.973 446.919 281.603 449.779C275.834 451.277 269.98 452.429 264.073 453.229C250.833 454.729 236.993 452.519 224.413 456.899C219.413 458.649 214.503 461.249 209.313 462.459C205.871 463.214 202.389 463.775 198.883 464.139L175.073 466.859C170.232 467.507 165.357 467.881 160.473 467.979C150.073 467.979 139.843 465.519 129.743 463.059C128.67 462.871 127.647 462.459 126.743 461.849C125.143 460.589 124.793 458.359 124.563 456.339C123.543 447.399 122.65 438.449 121.883 429.489C121.643 426.579 121.463 423.429 123.053 420.979C125.053 417.979 128.953 417.039 132.513 416.459C147.609 413.99 162.901 412.929 178.193 413.289C184.003 407.479 193.583 407.449 201.193 404.289C203.993 403.004 206.702 401.53 209.303 399.879C222.91 391.94 238.115 387.133 253.813 385.809C256.889 385.715 259.944 385.279 262.923 384.509C268.813 382.679 274.183 377.699 280.233 378.919C280.983 376.849 281.503 374.079 283.233 372.659C284.093 371.929 285.153 371.439 285.943 370.659C287.613 368.969 287.763 366.309 287.513 363.949C287.263 361.589 286.703 359.169 287.313 356.869C287.567 355.998 287.941 355.167 288.423 354.399C291.433 349.139 295.963 346.499 301.993 346.999Z" fill="black"/>
<path id="Vector_10" d="M105.423 462.709C99.2333 469.879 93.7834 472.439 84.0934 472.209C78.1334 472.069 72.18 471.759 66.2333 471.279C62.1688 470.84 58.0811 470.649 53.9933 470.709C41.6533 471.189 29.7433 476.839 17.4333 475.849C15.6131 475.706 13.8131 475.371 12.0633 474.849C9.28623 474.076 6.77708 472.55 4.81334 470.439C2.45334 467.769 1.32332 464.229 0.673324 460.729C-2.61668 442.789 6.40334 423.249 22.1933 414.119C24.2535 412.789 26.5955 411.957 29.0333 411.689C31.4238 411.68 33.787 412.199 35.9534 413.209L36.1033 413.269C42.5184 415.909 48.3447 419.798 53.2433 424.709C53.9865 425.561 54.8733 426.275 55.8633 426.819C56.8513 427.192 57.8973 427.389 58.9534 427.399L72.0934 428.229C74.3196 428.296 76.5322 428.601 78.6933 429.139C81.0758 429.971 83.3952 430.974 85.6333 432.139C92.7033 435.299 100.543 436.139 108.183 437.359C108.92 437.4 109.622 437.681 110.183 438.159C110.488 438.539 110.701 438.984 110.803 439.459C111.87 443.48 111.937 447.7 111 451.752C110.062 455.805 108.148 459.566 105.423 462.709V462.709Z" fill="#678BC1"/>
<path id="Vector_11" d="M36.0633 413.269C30.9653 418.137 26.5426 423.667 22.9133 429.709C17.0893 439.682 13.43 450.769 12.1733 462.249C11.6968 466.437 11.6599 470.664 12.0633 474.859C9.28511 474.083 6.77584 472.553 4.81334 470.439C2.45334 467.769 1.32332 464.229 0.673324 460.729C-2.61668 442.789 6.40334 423.249 22.1933 414.119C24.2535 412.789 26.5955 411.957 29.0333 411.689C31.4238 411.68 33.787 412.199 35.9534 413.209L36.0633 413.269Z" fill="#E8E8E8"/>
<path id="Vector_12" d="M290.553 438.139C297.903 437.939 306.153 437.569 311.553 442.519C316.703 447.199 317.383 454.919 317.723 461.869L318.113 469.939C318.233 472.399 318.333 474.939 317.343 477.219C315.583 481.219 310.753 483.149 306.343 482.919C301.933 482.689 297.883 480.759 293.853 479.019C282.912 474.306 271.52 470.717 259.853 468.309C260.233 462.729 260.867 457.176 261.753 451.649C262.363 447.819 262.463 441.409 265.023 438.229C267.733 434.869 271.263 436.689 274.943 437.309C280.107 438.097 285.335 438.375 290.553 438.139V438.139Z" fill="#FBBEBE"/>
<path id="Vector_13" d="M95.3611 357.079C95.3611 358.078 93.7816 357.079 93.6408 356.009C92.5342 347.924 86.0755 341.258 78.5504 338.02C71.0253 334.782 62.454 334.612 54.3052 335.382C41.9813 336.541 28.1987 341.228 23.6414 352.671C22.575 355.35 22.0922 358.248 20.7844 360.816C19.3357 363.635 16.9715 365.883 15.4021 368.622C12.6959 373.359 12.5852 379.165 13.5611 384.522C16.1868 398.814 26.0257 411.036 37.9472 419.501C49.8686 427.966 63.8021 433.023 77.6953 437.58C114.432 449.617 152.123 458.559 190.37 464.314C196.567 465.244 202.825 466.103 208.76 468.082C214.072 469.851 219.042 472.499 224.233 474.578C236.305 479.395 249.293 481.114 262.16 482.803C264.354 483.083 266.869 483.283 268.488 481.804C270.581 479.875 269.887 476.517 269.293 473.749C267.108 463.232 268.933 452.283 274.414 443.027C276.567 439.429 279.363 435.741 278.961 431.574C278.478 426.717 273.609 423.279 268.76 422.499C263.911 421.72 258.981 422.869 254.112 423.499C252.432 423.719 250.601 423.859 249.082 423.009C248.358 422.524 247.702 421.946 247.13 421.29C243.776 418.075 239.483 415.999 234.867 415.358C230.251 414.717 225.55 415.545 221.436 417.722C219.636 418.722 216.909 416.493 215.038 415.653L193.901 406.129C169.596 395.206 145.169 384.232 119.455 377.316C117.404 376.916 115.454 376.11 113.721 374.948C112.443 373.948 111.528 372.589 110.351 371.48C107.786 369.071 104.214 368.112 101.136 366.403C98.0573 364.694 94.6368 360.506 95.3611 357.079Z" fill="#464353"/>
<path id="Vector_14" d="M420.523 487.749C417.163 493.979 410.643 497.859 403.643 499.459C401.887 499.856 400.101 500.11 398.303 500.219C389.453 500.769 380.713 498.319 372.183 495.899L360.603 492.619C358.613 491.993 356.572 491.538 354.503 491.259C351.687 491.071 348.86 491.168 346.063 491.549C332.377 492.823 318.581 492.203 305.063 489.709C303.933 489.587 302.846 489.2 301.893 488.579C301.058 487.761 300.317 486.852 299.683 485.869C296.533 482.079 293.143 479.869 296.873 474.869C299.023 471.969 303.013 470.519 304.683 467.189C306.353 463.859 305.283 459.129 304.293 455.689C302.943 450.939 298.503 448.889 296.913 444.529C295.723 441.239 297.723 437.419 300.733 435.629C303.743 433.839 307.463 433.699 310.933 434.159C314.403 434.619 317.803 435.599 321.293 435.869C331.553 436.689 342.043 431.399 351.893 434.379C354.063 435.039 356.113 436.089 358.313 436.669C362.602 437.629 367.083 437.241 371.143 435.559C372.583 435.019 373.993 434.369 375.393 433.729C378.093 432.324 380.969 431.285 383.943 430.639C393.553 428.989 402.463 435.639 409.713 442.129C412.202 444.195 414.405 446.582 416.263 449.229C418.263 452.349 419.323 455.979 420.263 459.559C422.913 468.829 425.103 479.249 420.523 487.749Z" fill="#678BC1"/>
<path id="Vector_15" d="M420.523 487.749C417.163 493.979 410.643 497.859 403.643 499.459C406.366 494.169 407.594 488.236 407.193 482.299C406.593 472.789 402.413 463.829 397.083 455.929C393.804 451.066 390.075 446.523 385.943 442.359C382.763 439.159 378.853 436.619 375.433 433.689C378.133 432.284 381.009 431.245 383.983 430.599C393.593 428.949 402.503 435.599 409.753 442.089C412.242 444.155 414.445 446.542 416.303 449.189C418.303 452.309 419.363 455.939 420.303 459.519C422.913 468.829 425.103 479.249 420.523 487.749Z" fill="#E8E8E8"/>
<path id="Vector_16" d="M114.859 10.5829C111.67 13.233 108.353 10.9113 106.243 14.4109C95.8281 23.3713 99.8578 25.4146 93.215 29.3195C90.6989 30.8018 92.1781 33.5194 90.6051 35.9104C90.9074 40.4003 88.7939 41.7105 88.6611 43.5583C87.7774 50.0835 88.066 52.5339 88.4581 59.107C88.6784 62.3796 88.781 66.9314 90.4279 69.8073C91.9829 72.509 89.9957 70.9805 90.7094 73.9894C91.2584 76.3378 91.194 76.5727 91.0452 78.9781C90.8964 81.3835 91.6143 83.8108 93.8959 84.7998C95.1141 85.1667 92.9413 89.4632 94.2128 89.5076C100.947 90.5377 100.853 89.4923 102.294 95.8599C104.54 95.5784 110.117 99.9538 110.444 97.817L105.765 87.858L107.142 78.4951L113.399 68.2611C113.923 64.8783 114.911 60.933 118.154 59.542C120.328 58.624 122.811 59.1785 125.149 59.2216C134.328 59.3554 141.576 51.7815 150.375 49.2349C153.195 48.4689 156.105 48.081 159.027 48.0812C166.095 47.9563 174.481 50.2983 176.42 56.7727C176.741 57.8235 176.977 59.0905 178.01 59.5522C179.044 60.0138 180.011 59.4977 181.103 59.344C185.543 58.5941 192.022 66.5485 193.585 70.5726L194.559 85.0399C191.934 86.1494 192.394 89.5045 194.868 89.6287C197.152 89.7556 200.323 84.5 200.519 82.352C200.715 80.204 204.158 77.0055 203.525 74.9033C200.659 65.2239 203.19 69.9261 204.617 46.3956C206.009 36.4096 201.482 29.6492 194.077 22.5304C191.388 19.9552 188.944 15.7598 186.414 13.0235C184.057 10.4561 180.189 12.1096 177.755 9.59736C171.024 2.66375 158.655 5.08913 148.785 4.81143C137.537 4.33572 123.476 3.39794 114.859 10.5829Z" fill="#3F3D56"/>
<path id="Vector_17" d="M210.913 172.989C206.012 182.461 197.871 189.857 187.973 193.829C182.146 195.953 176.014 197.122 169.813 197.289C163.023 197.599 156.093 197.159 149.713 194.839C141.153 191.739 134.043 185.399 128.713 178.009C123.383 170.619 119.713 162.179 116.523 153.669C114.843 149.239 113.243 144.519 114.033 139.839C119.183 138.669 124.823 136.949 127.483 132.379C129.753 128.459 129.123 123.759 127.813 119.279C127.443 118.009 127.013 116.749 126.583 115.539C125.583 112.639 122.133 107.129 124.533 104.649C126.063 103.079 132.473 102.279 134.683 101.259C141.493 98.1193 147.773 93.5793 155.253 92.0893C161.723 90.7993 168.403 92.0093 174.863 93.3493C175.72 93.4739 176.543 93.7698 177.283 94.2193C178.127 94.9304 178.751 95.8668 179.083 96.9193C180.923 101.399 182.003 106.349 183.483 111.019C185.023 115.909 187.003 120.499 190.713 123.969C193.603 126.679 197.283 128.379 200.883 130.029L209.743 134.089C211.319 134.679 212.749 135.604 213.933 136.799C215.092 138.392 215.784 140.275 215.933 142.239C217.521 152.762 215.765 163.518 210.913 172.989V172.989Z" fill="#FBBEBE"/>
<g id="head">
<path id="Vector_18" d="M150.273 123.149C175.678 123.149 196.273 102.554 196.273 77.1493C196.273 51.7442 175.678 31.1493 150.273 31.1493C124.868 31.1493 104.273 51.7442 104.273 77.1493C104.273 102.554 124.868 123.149 150.273 123.149Z" fill="#FBBEBE"/>
<path id="Vector_19" d="M114.859 10.5829C111.67 13.233 108.353 10.9113 106.243 14.4109C95.8281 23.3713 99.8578 25.4146 93.215 29.3195C90.6989 30.8018 92.1781 33.5194 90.6051 35.9104C90.9074 40.4003 88.7939 41.7105 88.6611 43.5583C87.7774 50.0835 88.066 52.5339 88.4581 59.107C88.6784 62.3796 88.781 66.9314 90.4279 69.8073C91.9829 72.509 89.9957 70.9805 90.7094 73.9894C91.2584 76.3378 91.194 76.5727 91.0452 78.9781C90.8964 81.3835 91.6143 83.8108 93.8959 84.7998C95.1141 85.1667 92.9413 89.4632 94.2128 89.5076C100.947 90.5377 100.853 89.4923 102.294 95.8599C104.54 95.5784 110.117 99.9538 110.444 97.817L105.765 87.858L107.142 78.4951L113.399 68.2611C113.923 64.8783 114.911 60.933 118.154 59.542C120.328 58.624 122.811 59.1785 125.149 59.2216C134.328 59.3554 141.576 51.7815 150.375 49.2349C153.195 48.4689 156.105 48.081 159.027 48.0812C166.095 47.9563 174.481 50.2983 176.42 56.7727C176.741 57.8235 176.977 59.0905 178.01 59.5522C179.044 60.0138 180.011 59.4977 181.103 59.344C185.543 58.5941 192.022 66.5485 193.585 70.5726L194.559 85.0399C191.934 86.1494 192.394 89.5045 194.868 89.6287C197.152 89.7556 200.323 84.5 200.519 82.352C200.715 80.204 204.158 77.0055 203.525 74.9033C200.659 65.2239 203.19 69.9261 204.617 46.3956C206.009 36.4096 201.482 29.6492 194.077 22.5304C191.388 19.9552 188.944 15.7598 186.414 13.0235C184.057 10.4561 180.189 12.1096 177.755 9.59736C171.024 2.66375 158.655 5.08913 148.785 4.81143C137.537 4.33572 123.476 3.39794 114.859 10.5829Z" fill="#3F3D56"/>
</g>
<g id="Group" opacity="0.1">
<path id="Vector_20" opacity="0.1" d="M200.573 86.7893C198.113 86.4893 196.933 83.7893 196.233 81.5593C194.667 76.5526 193.1 71.5526 191.533 66.5593C190.243 62.4293 187.603 57.3893 183.123 57.8493C182.123 57.9593 180.943 58.3693 180.023 57.8493C179.103 57.3293 178.873 56.0393 178.623 54.9693C177.123 48.3693 168.913 45.4793 161.853 45.1293C158.938 44.9378 156.009 45.1294 153.143 45.6993C144.143 47.6993 136.453 54.6993 127.303 53.9693C124.943 53.7793 122.503 53.0593 120.303 53.8293C116.933 54.9893 115.723 58.8293 114.973 62.2093L108.043 93.0093C107.573 95.1293 106.553 97.7193 104.293 97.8393C103.293 91.3993 101.053 83.5993 94.4034 82.1193C93.1394 81.98 91.897 81.6879 90.7034 81.2493C89.8334 80.7741 89.1523 80.0153 88.7734 79.0993C88.5934 80.0293 88.3834 80.9593 88.2634 81.8893C87.9634 84.2693 88.4934 87.1093 90.7034 88.2493C91.8941 88.6972 93.1378 88.9896 94.4034 89.1193C101.053 90.5993 103.283 98.3993 104.293 104.849C106.553 104.719 107.573 102.129 108.043 100.019L114.973 69.2093C115.723 65.8693 116.973 61.9993 120.303 60.8293C122.533 60.0593 124.973 60.7793 127.303 60.9793C136.453 61.7293 144.193 54.6593 153.143 52.7093C155.996 52.138 158.911 51.9463 161.813 52.1393C168.873 52.4893 177.083 55.3893 178.583 61.9793C178.833 63.0493 178.983 64.3293 179.983 64.8593C180.983 65.3893 181.983 64.9393 183.083 64.8593C187.563 64.4093 190.203 69.4493 191.493 73.5693C193.053 78.576 194.62 83.576 196.193 88.5693C196.893 90.8393 198.073 93.5093 200.533 93.7993C202.803 94.0793 204.733 91.9293 205.073 89.7993C205.227 88.007 205.023 86.2021 204.473 84.4893C204.118 85.2108 203.559 85.8128 202.867 86.2214C202.174 86.6299 201.377 86.8273 200.573 86.7893Z" fill="black"/>
<path id="Vector_21" opacity="0.1" d="M89.0333 67.7493C88.5233 64.6993 86.0333 62.3293 84.6833 59.5293C83.8154 57.6408 83.3132 55.6048 83.2034 53.5293C83.2034 54.6493 83.1034 55.7693 83.0934 56.8993C83.0934 60.1793 83.2333 63.5593 84.6833 66.5393C85.7933 68.8093 87.6233 70.8093 88.5433 73.1193C89.0284 71.3733 89.1944 69.5542 89.0333 67.7493Z" fill="black"/>
<path id="Vector_22" opacity="0.1" d="M207.453 46.4693C205.633 55.1893 202.793 64.0693 203.673 72.8093C204.243 66.3593 206.123 59.8693 207.453 53.4693C208.562 48.6124 208.953 43.6194 208.613 38.6493C208.396 41.2783 208.008 43.8904 207.453 46.4693V46.4693Z" fill="black"/>
</g>
<path id="Vector_23" d="M92.9733 270.639C91.7633 290.499 77.1934 306.909 71.6434 326.009C70.2634 330.789 69.4334 335.749 67.4534 340.299C63.4534 349.449 55.2234 356.089 46.4534 360.769C43.2536 362.619 39.7537 363.891 36.1133 364.529C32.1116 364.997 28.0625 364.234 24.5054 362.342C20.9484 360.45 18.0524 357.519 16.2034 353.939C13.9134 349.289 13.5934 343.939 12.2034 338.939C10.6534 333.169 7.75334 327.849 5.86334 322.179C2.38334 311.749 2.45334 300.329 4.86334 289.609C7.14686 280.287 10.7606 271.342 15.5934 263.049C16.2934 261.819 17.0033 260.599 17.7333 259.389C19.7961 255.891 22.1123 252.549 24.6633 249.389C30.6633 242.159 38.3734 236.599 46.0034 231.119C46.586 230.639 47.2697 230.297 48.0034 230.119H48.1233C48.9837 230.089 49.8364 230.289 50.5934 230.699C61.1748 235.274 71.331 240.775 80.9434 247.139C84.3834 249.429 89.8133 251.989 91.6133 255.889C93.4133 259.789 93.2333 266.399 92.9733 270.639Z" fill="#FBBEBE"/>
<path id="Vector_24" d="M53.2734 179.249C52.2993 180.269 51.5438 181.477 51.0533 182.799C42.97 201.017 38.1955 220.528 36.9534 240.419C36.9751 241.389 36.7515 242.349 36.3033 243.209C35.8614 243.782 35.3695 244.314 34.8334 244.799C34.3465 245.376 33.9832 246.047 33.7659 246.77C33.5487 247.493 33.482 248.253 33.5701 249.003C33.6582 249.753 33.8992 250.477 34.2782 251.13C34.6572 251.782 35.166 252.351 35.7734 252.799C37.4234 249.689 41.3734 248.679 44.8834 248.409C61.6934 247.079 78.1133 254.899 94.9733 254.309C93.7833 250.199 92.0733 246.249 91.1033 242.089C86.8133 223.619 97.5134 203.509 90.9534 185.719C89.6434 182.159 87.4534 178.659 84.0034 177.099C82.5749 176.522 81.08 176.126 79.5533 175.919C75.2933 175.149 66.8134 171.859 62.6934 173.179C61.1734 173.669 60.5734 175.099 59.3134 175.959C57.4434 177.189 54.9034 177.619 53.2734 179.249Z" fill="#F86D70"/>
<g id="hand">
<path id="Vector_25" opacity="0.1" d="M60.1633 344.599C57.5922 348.96 53.9416 352.586 49.5631 355.127C45.1845 357.669 40.2255 359.04 35.1633 359.109C32.4234 359.181 29.6987 358.68 27.1633 357.639C20.7733 354.819 17.1634 347.839 15.8234 340.979C14.4834 334.119 14.9034 327.039 13.9534 320.109C13.1934 314.589 11.5733 309.229 10.7333 303.719C8.67334 290.089 12.7334 276.629 15.6234 263.059C16.3234 261.829 17.0334 260.609 17.7634 259.399C19.8262 255.901 22.1424 252.559 24.6934 249.399C30.6934 242.169 38.4033 236.609 46.0333 231.129H38.0333C38.2269 230.988 38.4542 230.899 38.6926 230.873C38.9309 230.847 39.172 230.884 39.3917 230.98C39.6113 231.076 39.8019 231.228 39.9443 231.421C40.0868 231.614 40.1761 231.841 40.2034 232.079C40.9934 239.079 50.8634 246.079 53.0134 252.879C54.3434 257.059 55.9434 261.159 57.0134 265.419C57.8568 269.048 58.4978 272.72 58.9334 276.419C60.3534 286.773 61.7667 297.106 63.1733 307.419C64.9433 320.009 66.4633 333.619 60.1633 344.599Z" fill="black"/>
<path id="hand_2" d="M46.9234 213.299L56.5734 183.029C58.0134 178.499 59.4734 173.899 59.6434 169.139C59.8134 164.379 58.5634 159.389 55.2334 155.989C52.5334 153.239 48.7934 151.819 45.5934 149.669C37.5934 144.279 33.5934 134.839 29.4234 126.149C25.2534 117.459 19.7634 108.369 10.6634 105.149C8.56336 104.409 5.66336 104.349 4.72336 106.359C4.39822 107.195 4.34576 108.112 4.57339 108.979C5.45339 113.599 8.7634 117.289 11.6434 120.979C16.4734 127.229 20.5134 134.879 19.3534 142.699C17.9734 151.959 9.65341 159.139 8.65341 168.449C8.21341 172.549 9.26339 176.659 9.25339 180.789C9.25339 183.349 8.83341 185.959 9.40341 188.459C9.99501 190.392 10.6995 192.289 11.5134 194.139C12.4041 197.129 12.8687 200.23 12.8934 203.349L15.0034 242.709C16.1434 263.999 4.59341 284.709 7.77341 305.709C8.61341 311.219 10.2334 316.579 10.9934 322.099C11.9934 329.029 11.5234 336.099 12.8634 342.969C14.2034 349.839 17.8634 356.809 24.2034 359.629C26.7388 360.67 29.4635 361.171 32.2034 361.099C37.2655 361.03 42.2246 359.659 46.6031 357.117C50.9817 354.576 54.6322 350.95 57.2034 346.589C63.5034 335.589 61.9834 321.999 60.2634 309.459L56.0234 278.459C55.5878 274.76 54.9468 271.088 54.1034 267.459C53.0434 263.199 51.4434 259.099 50.1034 254.919C45.8134 241.249 42.6034 226.879 46.9234 213.299Z" fill="#FBBEBE"/>
</g>
<path id="Vector_26" d="M303.803 215.649H96.7433C92.3416 215.649 88.7734 219.218 88.7734 223.619V349.679C88.7734 354.081 92.3416 357.649 96.7433 357.649H303.803C308.205 357.649 311.773 354.081 311.773 349.679V223.619C311.773 219.218 308.205 215.649 303.803 215.649Z" fill="#3F3D56"/>
<path id="Vector_27" opacity="0.2" d="M303.803 215.649H96.7433C92.3416 215.649 88.7734 219.218 88.7734 223.619V349.679C88.7734 354.081 92.3416 357.649 96.7433 357.649H303.803C308.205 357.649 311.773 354.081 311.773 349.679V223.619C311.773 219.218 308.205 215.649 303.803 215.649Z" fill="white"/>
<path id="Vector_28" d="M199.773 292.649C203.087 292.649 205.773 289.963 205.773 286.649C205.773 283.336 203.087 280.649 199.773 280.649C196.46 280.649 193.773 283.336 193.773 286.649C193.773 289.963 196.46 292.649 199.773 292.649Z" fill="white"/>
</g>
</svg>
