<svg width="250" height="276" viewBox="0 0 250 276" fill="none" xmlns="http://www.w3.org/2000/svg">
<g filter="url(#filter0_d)">
<mask id="mask0" mask-type="alpha" maskUnits="userSpaceOnUse" x="0" y="26" width="250" height="250">
<circle cx="125" cy="151" r="125" fill="#C4C4C4"/>
</mask>
<g mask="url(#mask0)">
</g>
<mask id="mask1" mask-type="alpha" maskUnits="userSpaceOnUse" x="0" y="0" width="250" height="250">
<circle cx="125" cy="125" r="125" fill="#C4C4C4"/>
</mask>
<g mask="url(#mask1)">
<path d="M232.871 229.795L229.47 210.909C227.751 201.432 225.978 191.775 221.172 183.239C218.013 177.647 213.001 172.319 206.242 171.214C204.911 171.105 203.603 170.827 202.355 170.389C200.375 169.515 199.295 167.552 197.774 166.1C193.85 162.372 187.461 162.315 182.205 160.418C177.561 158.768 173.763 155.593 169.534 153.168C165.304 150.744 160.039 149.045 155.36 150.595C154.604 157.977 153.803 165.523 150.383 172.245C148.157 176.62 144.892 180.485 140.827 183.556C136.762 186.627 131.999 188.826 126.887 189.993C121.775 191.16 116.443 191.265 111.281 190.3C106.12 189.335 101.258 187.326 97.0527 184.418C89.0343 178.884 83.8956 170.348 81.5018 161.416C80.9168 159.238 80.2509 156.739 78.064 155.741C75.6972 154.653 72.8534 155.972 70.8645 157.572C67.2198 160.533 64.322 164.772 59.5883 165.77C57.8784 166.133 55.9885 166.059 54.5666 167.008C53.6216 167.807 52.8306 168.746 52.2268 169.787C51.1909 171.128 49.8069 172.212 48.1996 172.941C46.5924 173.669 44.8124 174.02 43.0204 173.96C41.3736 173.886 39.4207 173.54 38.2958 174.636C37.4588 175.461 37.3958 176.748 36.4959 177.515C35.281 178.595 33.3101 178.067 31.6182 178.01C28.4144 177.886 25.4356 179.766 23.5998 182.133C21.7639 184.5 20.8999 187.428 20 190.265C29.8363 210.34 38.8357 230.439 48.672 250.513C49.1329 251.27 49.3774 252.121 49.383 252.987C49.1857 253.887 48.7671 254.733 48.1591 255.461C43.3354 262.563 43.4884 271.495 44.0194 279.841C44.5503 288.187 47.8306 265.342 43.7629 272.823C42.6559 274.876 45.7712 274.024 23.5998 267.5C21.1339 272.152 20 255.461 54.5666 279.841L182.205 286.5C178.326 276.727 191.312 275 206.242 275C206.809 267.742 221.802 262.719 221.172 255.461C219.849 240.641 235.544 244.591 232.871 229.795Z" fill="#F86D70"/>
<path d="M167.03 192.989C162.128 202.461 153.987 209.857 144.09 213.829C138.262 215.953 132.13 217.122 125.93 217.289C119.14 217.599 112.21 217.159 105.83 214.839C97.27 211.739 90.16 205.399 84.83 198.009C79.5 190.619 75.83 182.179 72.64 173.669C70.96 169.239 69.36 164.519 70.15 159.839C75.3 158.669 80.94 156.949 83.6 152.379C85.87 148.459 85.24 143.759 83.93 139.279C83.56 138.009 83.13 136.749 82.7 135.539C81.7 132.639 78.25 127.129 80.65 124.649C82.18 123.079 88.59 122.279 90.8 121.259C97.61 118.119 103.89 113.579 111.37 112.089C117.84 110.799 124.52 112.009 130.98 113.349C131.837 113.474 132.66 113.77 133.4 114.219C134.244 114.93 134.868 115.867 135.2 116.919C137.04 121.399 138.12 126.349 139.6 131.019C141.14 135.909 143.12 140.499 146.83 143.969C149.72 146.679 153.4 148.379 157 150.029L165.86 154.089C167.436 154.679 168.865 155.604 170.05 156.799C171.209 158.392 171.901 160.275 172.05 162.239C173.637 172.762 171.882 183.518 167.03 192.989V192.989Z" fill="#FBBEBE"/>
<path d="M106.39 143.149C131.795 143.149 152.39 122.554 152.39 97.1493C152.39 71.7442 131.795 51.1493 106.39 51.1493C80.9849 51.1493 60.39 71.7442 60.39 97.1493C60.39 122.554 80.9849 143.149 106.39 143.149Z" fill="#FBBEBE"/>
<path d="M70.9755 30.5829C67.7863 33.233 64.4696 30.9113 62.3598 34.4109C51.9448 43.3713 55.9744 45.4146 49.3317 49.3195C46.8156 50.8018 48.2947 53.5194 46.7217 55.9104C47.024 60.4003 44.9106 61.7105 44.7777 63.5583C43.894 70.0835 44.1826 72.5339 44.5747 79.107C44.795 82.3796 44.8977 86.9314 46.5445 89.8073C48.0995 92.509 46.1124 90.9805 46.826 93.9894C47.375 96.3378 47.3106 96.5727 47.1618 98.9781C47.0131 101.384 47.731 103.811 50.0125 104.8C51.2307 105.167 49.058 109.463 50.3294 109.508C57.0638 110.538 56.9701 109.492 58.4109 115.86C60.6571 115.578 66.2336 119.954 66.5608 117.817L61.8814 107.858L63.259 98.4951L69.5159 88.2611C70.0399 84.8783 71.0271 80.933 74.271 79.542C76.4443 78.624 78.9271 79.1785 81.2653 79.2216C90.445 79.3554 97.6927 71.7815 106.492 69.2349C109.312 68.4689 112.221 68.081 115.144 68.0812C122.211 67.9563 130.597 70.2983 132.537 76.7727C132.858 77.8235 133.093 79.0905 134.127 79.5522C135.16 80.0138 136.128 79.4977 137.22 79.344C141.66 78.5941 148.138 86.5485 149.702 90.5726L150.676 105.04C148.051 106.149 148.511 109.505 150.985 109.629C153.268 109.756 156.439 104.5 156.636 102.352C156.832 100.204 160.275 97.0055 159.642 94.9033C156.776 85.2239 159.307 89.9261 160.733 66.3956C162.126 56.4096 157.598 49.6492 150.193 42.5304C147.504 39.9552 145.06 35.7598 142.531 33.0235C140.173 30.4561 136.306 32.1096 133.871 29.5974C127.14 22.6637 114.772 25.0891 104.901 24.8114C93.6538 24.3357 79.5925 23.3979 70.9755 30.5829Z" fill="#3F3D56"/>
</g>
</g>
<defs>
<filter id="filter0_d" x="16" y="20" width="221.178" height="238" filterUnits="userSpaceOnUse" color-interpolation-filters="sRGB">
<feFlood flood-opacity="0" result="BackgroundImageFix"/>
<feColorMatrix in="SourceAlpha" type="matrix" values="0 0 0 0 0 0 0 0 0 0 0 0 0 0 0 0 0 0 127 0"/>
<feOffset dy="4"/>
<feGaussianBlur stdDeviation="2"/>
<feColorMatrix type="matrix" values="0 0 0 0 0 0 0 0 0 0 0 0 0 0 0 0 0 0 0.25 0"/>
<feBlend mode="normal" in2="BackgroundImageFix" result="effect1_dropShadow"/>
<feBlend mode="normal" in="SourceGraphic" in2="effect1_dropShadow" result="shape"/>
</filter>
</defs>
</svg>
