<svg width="662" height="446" viewBox="0 0 662 446" fill="none" xmlns="http://www.w3.org/2000/svg">
<g clip-path="url(#clip0)">
<path d="M660.187 322.178C660.187 348.622 514.495 446 332.542 446C150.589 446 7.36093 342.227 7.36093 315.783C7.36093 289.339 150.589 350.225 332.542 350.225C514.495 350.225 660.187 295.71 660.187 322.178Z" fill="#3F3D56"/>
<path d="M661.994 311.623C661.994 311.975 661.994 312.326 661.994 312.684C661.595 323.674 655.469 334.604 644.29 342.322C632.431 350.499 616.529 354.802 600.202 357.55C597.649 357.979 595.084 358.366 592.525 358.742C591.219 358.921 589.918 359.099 588.624 359.266C552.278 364.034 515.17 364.946 478.234 365.822C439.598 366.776 400.926 367.717 362.249 368.206L354.577 368.295C295.893 368.927 237.232 368.397 178.762 365.071C160.617 364.046 142.292 362.687 124.301 360.399C121.736 360.085 119.179 359.741 116.63 359.367C92.7696 355.952 69.619 350.714 48.5265 342.209C43.5473 340.223 38.677 337.975 33.9359 335.474C20.6874 328.448 9.51478 319.562 3.98514 308.655C0.768495 302.261 -0.55587 295.082 0.167483 287.962C0.404065 285.374 0.848908 282.809 1.4977 280.292C3.16079 274.064 5.69722 268.103 9.03161 262.585C17.6452 248.031 30.5835 234.985 41.7382 221.319C65.5509 192.193 81.0601 155.391 59.0847 125.538C52.7796 116.962 43.6649 109.447 38.529 100.477C35.7815 95.6318 34.0674 90.2708 33.4945 84.7313C33.2156 82.1846 33.11 79.6219 33.1783 77.061C33.422 71.0806 34.1703 65.1314 35.4152 59.2767C38.9943 40.9681 45.6811 21.229 66.3323 9.80992C80.4278 2.01443 98.3946 -0.405273 116.612 0.0536357C119.169 0.113234 121.726 0.23243 124.283 0.411226C131.268 0.870135 138.212 1.71643 144.916 2.79517C186.338 9.40465 224.568 23.2136 263.162 35.6817C292.546 45.1698 322.98 54.044 354.56 58.2755C357.113 58.6152 359.666 58.9311 362.231 59.2052C369.633 60.0158 377.102 60.5522 384.63 60.7727C422.096 61.8454 465.809 53.74 490.689 32.6898C514.722 12.3429 559.795 10.7039 592.507 22.8561L592.996 23.0408C595.458 23.9785 597.844 24.9877 600.154 26.0684C624.259 37.3921 640.407 56.7855 642.685 77.0788C642.971 79.5993 643.038 82.1396 642.888 84.6717C642.891 84.6974 642.891 84.7234 642.888 84.7492C641.325 109.715 620.901 130.682 600.16 151.684C597.595 154.277 595.024 156.869 592.483 159.48C585.755 166.381 579.235 173.336 573.58 180.494C570.997 183.739 568.623 187.142 566.469 190.686C564.49 193.954 562.8 197.388 561.417 200.949C559.958 204.635 559.021 208.506 558.631 212.451C558.05 218.106 559.084 223.809 561.614 228.9L561.668 229.019C567.203 239.986 578.919 247.757 592.483 254.647C594.983 255.922 597.554 257.162 600.16 258.39C614.87 265.327 630.719 271.77 642.769 280.334C646.017 282.591 649.049 285.145 651.824 287.962C652.954 289.131 654.021 290.358 655.021 291.64C659.421 297.194 661.869 304.04 661.988 311.122C661.994 311.301 661.994 311.462 661.994 311.623Z" fill="#6C63FF"/>
<path d="M651.019 309.623C651.019 309.975 651.019 310.326 651.019 310.684C650.62 321.674 644.494 332.604 633.315 340.322C621.456 348.499 605.554 352.802 589.227 355.55C586.674 355.979 584.109 356.366 581.55 356.742C580.244 356.921 578.943 357.099 577.649 357.266C541.304 362.034 504.195 362.946 467.259 363.822C428.623 364.776 389.951 365.717 351.274 366.206L343.602 366.295C284.918 366.927 226.257 366.397 167.787 363.071C149.642 362.046 131.317 360.687 113.326 358.399C110.761 358.085 108.204 357.741 105.655 357.368C81.7946 353.953 58.6441 348.714 37.5515 340.209C32.5723 338.223 27.702 335.975 22.9609 333.474C9.71242 326.448 -1.46019 317.562 -6.98983 306.655C-10.2065 300.261 -11.5308 293.082 -10.8075 285.962C-10.5709 283.374 -10.1261 280.809 -9.47728 278.292C-7.81419 272.064 -5.27776 266.103 -1.94337 260.585C6.67023 246.031 19.6085 232.985 30.7632 219.319C54.5759 190.194 70.0851 153.391 48.1097 123.538C41.8046 114.962 32.69 107.447 27.554 98.4773C24.8065 93.6319 23.0924 88.2708 22.5195 82.7313C22.2407 80.1846 22.135 77.622 22.2033 75.061C22.447 69.0806 23.1953 63.1314 24.4402 57.2768C28.0193 38.9681 34.7062 19.229 55.3573 7.80995C69.4528 0.014461 87.4197 -2.40524 105.637 -1.94633C108.194 -1.88674 110.751 -1.76754 113.308 -1.58874C120.293 -1.12983 127.237 -0.283534 133.941 0.7952C175.363 7.40468 213.593 21.2137 252.187 33.6817C281.571 43.1698 312.005 52.044 343.585 56.2755C346.138 56.6152 348.691 56.9311 351.256 57.2053C358.658 58.0158 366.127 58.5522 373.655 58.7727C411.121 59.8455 454.834 51.7401 479.714 30.6898C503.747 10.3429 548.82 8.70393 581.532 20.8561L582.021 21.0408C584.483 21.9785 586.869 22.9877 589.179 24.0684C613.284 35.3922 629.432 54.7856 631.71 75.0789C631.996 77.5993 632.063 80.1396 631.913 82.6717C631.916 82.6974 631.916 82.7235 631.913 82.7492C630.35 107.715 609.926 128.682 589.185 149.684C586.62 152.277 584.049 154.869 581.508 157.48C574.78 164.381 568.26 171.337 562.605 178.494C560.023 181.739 557.648 185.143 555.494 188.686C553.515 191.954 551.825 195.388 550.442 198.949C548.983 202.635 548.046 206.506 547.656 210.451C547.075 216.106 548.109 221.809 550.639 226.9L550.693 227.019C556.228 237.986 567.944 245.757 581.508 252.647C584.008 253.922 586.579 255.162 589.185 256.39C603.895 263.327 619.744 269.77 631.794 278.334C635.042 280.591 638.074 283.145 640.849 285.962C641.979 287.131 643.046 288.359 644.046 289.64C648.446 295.194 650.894 302.04 651.013 309.122C651.019 309.301 651.019 309.462 651.019 309.623Z" fill="url(#paint0_linear)"/>
<path d="M600.184 26.0684V151.678C597.619 154.277 595.048 156.869 592.507 159.48V22.856L600.184 26.0684Z" fill="#3F3D56"/>
<path d="M642.918 84.6717C642.921 84.6974 642.921 84.7234 642.918 84.7492H33.494C33.2154 82.2024 33.1098 79.6398 33.1778 77.0788H642.715C643 79.5993 643.068 82.1396 642.918 84.6717V84.6717Z" fill="#3F3D56"/>
<path d="M143.95 45.0327C145.185 45.0327 146.187 44.0321 146.187 42.7977C146.187 41.5634 145.185 40.5628 143.95 40.5628C142.714 40.5628 141.713 41.5634 141.713 42.7977C141.713 44.0321 142.714 45.0327 143.95 45.0327Z" fill="#E7EFFD"/>
<path d="M72.3088 40.5568C73.5443 40.5568 74.5458 39.5562 74.5458 38.3219C74.5458 37.0876 73.5443 36.0869 72.3088 36.0869C71.0734 36.0869 70.0719 37.0876 70.0719 38.3219C70.0719 39.5562 71.0734 40.5568 72.3088 40.5568Z" fill="#E7EFFD"/>
<path d="M169.218 43.7573C169.748 43.7573 170.178 43.3277 170.178 42.7977C170.178 42.2678 169.748 41.8382 169.218 41.8382C168.687 41.8382 168.257 42.2678 168.257 42.7977C168.257 43.3277 168.687 43.7573 169.218 43.7573Z" fill="#E7EFFD"/>
<path d="M97.2549 41.5223C97.7853 41.5223 98.2153 41.0927 98.2153 40.5628C98.2153 40.0328 97.7853 39.6032 97.2549 39.6032C96.7245 39.6032 96.2945 40.0328 96.2945 40.5628C96.2945 41.0927 96.7245 41.5223 97.2549 41.5223Z" fill="#E7EFFD"/>
<path d="M96.3004 108.541C96.8308 108.541 97.2608 108.111 97.2608 107.581C97.2608 107.051 96.8308 106.622 96.3004 106.622C95.77 106.622 95.3401 107.051 95.3401 107.581C95.3401 108.111 95.77 108.541 96.3004 108.541Z" fill="#E7EFFD"/>
<path d="M539.25 57.8941C539.781 57.8941 540.211 57.4645 540.211 56.9345C540.211 56.4046 539.781 55.975 539.25 55.975C538.72 55.975 538.29 56.4046 538.29 56.9345C538.29 57.4645 538.72 57.8941 539.25 57.8941Z" fill="#E7EFFD"/>
<path d="M213.992 58.7761C214.522 58.7761 214.952 58.3465 214.952 57.8166C214.952 57.2866 214.522 56.857 213.992 56.857C213.461 56.857 213.031 57.2866 213.031 57.8166C213.031 58.3465 213.461 58.7761 213.992 58.7761Z" fill="#E7EFFD"/>
<path d="M491.917 56.857C492.448 56.857 492.878 56.4274 492.878 55.8975C492.878 55.3676 492.448 54.938 491.917 54.938C491.387 54.938 490.957 55.3676 490.957 55.8975C490.957 56.4274 491.387 56.857 491.917 56.857Z" fill="#E7EFFD"/>
<path d="M612.812 59.7357C613.342 59.7357 613.772 59.3061 613.772 58.7761C613.772 58.2462 613.342 57.8166 612.812 57.8166C612.281 57.8166 611.851 58.2462 611.851 58.7761C611.851 59.3061 612.281 59.7357 612.812 59.7357Z" fill="#E7EFFD"/>
<path d="M661.994 311.623C661.994 311.975 661.994 312.326 661.994 312.684C661.69 323.757 655.552 334.801 644.29 342.573C632.431 350.75 616.528 355.053 600.202 357.8C597.649 358.229 595.084 358.617 592.525 358.992C591.218 359.171 589.918 359.35 588.623 359.516C579.676 360.708 570.68 361.62 561.655 362.383C549.546 363.408 537.377 364.117 525.197 364.642C509.556 365.327 493.886 365.715 478.233 366.102C447.638 366.853 417.02 367.604 386.371 368.122L375.497 368.301L362.23 368.48L354.559 368.569C306.242 369.082 257.996 368.82 209.834 366.853C206.629 366.726 203.43 366.587 200.236 366.436C193.078 366.122 185.92 365.758 178.762 365.345C164.416 364.535 149.956 363.51 135.652 361.99C131.858 361.592 128.08 361.153 124.318 360.673C121.753 360.359 119.196 360.015 116.647 359.642C113.808 359.244 110.981 358.811 108.165 358.342C87.2872 354.933 67.1311 349.999 48.5439 342.477C43.5604 340.481 38.6843 338.227 33.9354 335.725V230.831C36.5839 227.762 39.2145 224.693 41.7437 221.588C44.7859 217.857 47.7088 214.013 50.3931 210.067H108.135V174.517H209.84V252.674H375.497V190.692H566.618C564.677 193.855 563.003 197.174 561.613 200.615V200.949H561.393C559.934 204.635 558.997 208.506 558.607 212.451C558.026 218.106 559.06 223.809 561.59 228.9V229.151L561.643 229.27C567.179 240.236 578.894 248.008 592.459 254.897C594.958 256.173 597.529 257.412 600.136 258.64C614.697 265.506 630.385 271.895 642.387 280.334L642.745 280.584C645.905 282.774 648.861 285.244 651.579 287.962C651.668 288.046 651.746 288.129 651.823 288.213C652.953 289.381 654.021 290.609 655.021 291.89C659.367 297.378 661.812 304.127 661.988 311.122C661.994 311.301 661.994 311.462 661.994 311.623Z" fill="#6C63FF"/>
<path opacity="0.3" d="M661.994 311.623C661.994 311.975 661.994 312.326 661.994 312.684C661.69 323.757 655.552 334.801 644.29 342.573C632.431 350.75 616.528 355.053 600.202 357.8C597.649 358.229 595.084 358.617 592.525 358.992C591.218 359.171 589.918 359.35 588.623 359.516C579.676 360.708 570.68 361.62 561.655 362.383C549.546 363.408 537.377 364.117 525.197 364.642C509.556 365.327 493.886 365.715 478.233 366.102C447.638 366.853 417.02 367.604 386.371 368.122L375.497 368.301L362.23 368.48L354.559 368.569C306.242 369.082 257.996 368.82 209.834 366.853C206.629 366.726 203.43 366.587 200.236 366.436C193.078 366.122 185.92 365.758 178.762 365.345C164.416 364.535 149.956 363.51 135.652 361.99C131.858 361.592 128.08 361.153 124.318 360.673C121.753 360.359 119.196 360.015 116.647 359.642C113.808 359.244 110.981 358.811 108.165 358.342C87.2872 354.933 67.1311 349.999 48.5439 342.477C43.5604 340.481 38.6843 338.227 33.9354 335.725V230.831C36.5839 227.762 39.2145 224.693 41.7437 221.588C44.7859 217.857 47.7088 214.013 50.3931 210.067H108.135V174.517H209.84V252.674H375.497V190.692H566.618C564.677 193.855 563.003 197.174 561.613 200.615V200.949H561.393C559.934 204.635 558.997 208.506 558.607 212.451C558.026 218.106 559.06 223.809 561.59 228.9V229.151L561.643 229.27C567.179 240.236 578.894 248.008 592.459 254.897C594.958 256.173 597.529 257.412 600.136 258.64C614.697 265.506 630.385 271.895 642.387 280.334L642.745 280.584C645.905 282.774 648.861 285.244 651.579 287.962C651.668 288.046 651.746 288.129 651.823 288.213C652.953 289.381 654.021 290.609 655.021 291.89C659.367 297.378 661.812 304.127 661.988 311.122C661.994 311.301 661.994 311.462 661.994 311.623Z" fill="black"/>
<path opacity="0.4" d="M69.9646 224.561H52.9044V236.064H69.9646V224.561Z" fill="black"/>
<path opacity="0.4" d="M97.2608 224.561H80.2007V236.064H97.2608V224.561Z" fill="black"/>
<path opacity="0.4" d="M410.685 200.919H393.625V212.421H410.685V200.919Z" fill="black"/>
<path opacity="0.4" d="M456.741 200.919H439.681V212.421H456.741V200.919Z" fill="black"/>
<path opacity="0.4" d="M506.204 200.919H489.144V212.421H506.204V200.919Z" fill="black"/>
<path opacity="0.4" d="M410.685 236.07H393.625V247.572H410.685V236.07Z" fill="black"/>
<path opacity="0.4" d="M456.741 236.07H439.681V247.572H456.741V236.07Z" fill="black"/>
<path d="M506.204 236.07H489.144V247.572H506.204V236.07Z" fill="#6C63FF"/>
<path opacity="0.4" d="M410.685 271.215H393.625V282.718H410.685V271.215Z" fill="black"/>
<path opacity="0.4" d="M456.741 271.215H439.681V282.718H456.741V271.215Z" fill="black"/>
<path opacity="0.4" d="M506.204 271.215H489.144V282.718H506.204V271.215Z" fill="black"/>
<path opacity="0.4" d="M410.685 306.366H393.625V317.869H410.685V306.366Z" fill="black"/>
<path opacity="0.4" d="M456.741 306.366H439.681V317.869H456.741V306.366Z" fill="black"/>
<path opacity="0.4" d="M506.204 306.366H489.144V317.869H506.204V306.366Z" fill="black"/>
<path opacity="0.4" d="M410.685 341.518H393.625V353.02H410.685V341.518Z" fill="black"/>
<path opacity="0.4" d="M456.741 341.518H439.681V353.02H456.741V341.518Z" fill="black"/>
<path opacity="0.4" d="M506.204 341.518H489.144V353.02H506.204V341.518Z" fill="black"/>
<path opacity="0.4" d="M561.417 200.949C559.958 204.635 559.02 208.506 558.631 212.451H549.272V200.949H561.417Z" fill="black"/>
<path d="M566.332 236.07H549.272V247.572H566.332V236.07Z" fill="#6C63FF"/>
<path opacity="0.4" d="M566.332 271.215H549.272V282.718H566.332V271.215Z" fill="black"/>
<path opacity="0.4" d="M566.332 306.366H549.272V317.869H566.332V306.366Z" fill="black"/>
<path opacity="0.4" d="M566.332 341.518H549.272V353.02H566.332V341.518Z" fill="black"/>
<path opacity="0.4" d="M164.637 187.497H147.576V199H164.637V187.497Z" fill="black"/>
<path d="M164.637 213.285H147.576V224.788H164.637V213.285Z" fill="#6C63FF"/>
<path opacity="0.4" d="M164.637 239.068H147.576V250.57H164.637V239.068Z" fill="black"/>
<path opacity="0.4" d="M164.637 264.856H147.576V276.359H164.637V264.856Z" fill="black"/>
<path opacity="0.4" d="M164.637 290.638H147.576V302.141H164.637V290.638Z" fill="black"/>
<path opacity="0.4" d="M164.637 316.427H147.576V327.929H164.637V316.427Z" fill="black"/>
<path opacity="0.4" d="M164.637 342.209H147.576V353.712H164.637V342.209Z" fill="black"/>
<path opacity="0.4" d="M69.9646 254.623H52.9044V266.126H69.9646V254.623Z" fill="black"/>
<path opacity="0.4" d="M97.2608 254.623H80.2007V266.126H97.2608V254.623Z" fill="black"/>
<path opacity="0.4" d="M69.9646 284.685H52.9044V296.187H69.9646V284.685Z" fill="black"/>
<path opacity="0.4" d="M97.2608 284.685H80.2007V296.187H97.2608V284.685Z" fill="black"/>
<path opacity="0.4" d="M69.9646 314.746H52.9044V326.249H69.9646V314.746Z" fill="black"/>
<path opacity="0.4" d="M97.2608 314.746H80.2007V326.249H97.2608V314.746Z" fill="black"/>
<path opacity="0.4" d="M329.237 266.078H243.948V276.359H329.237V266.078Z" fill="black"/>
<path opacity="0.4" d="M329.237 298.881H243.948V309.162H329.237V298.881Z" fill="black"/>
<path opacity="0.4" d="M329.237 331.69H243.948V341.971H329.237V331.69Z" fill="black"/>
<path d="M124.283 0.41124V360.387C121.718 360.073 119.161 359.729 116.612 359.356V0.0536499C119.171 0.101329 121.724 0.232445 124.283 0.41124Z" fill="#3F3D56"/>
<path d="M362.23 59.1933V368.218L354.559 368.307V58.2576C357.112 58.6033 359.669 58.9152 362.23 59.1933Z" fill="#3F3D56"/>
<path d="M651.823 287.962H0.167023C0.403604 285.374 0.848447 282.809 1.49724 280.292H642.792C646.037 282.56 649.06 285.128 651.823 287.962V287.962Z" fill="#3F3D56"/>
<path d="M592.507 254.623C595.006 255.898 597.577 257.138 600.184 258.366V357.55C597.631 357.979 595.066 358.366 592.507 358.742V254.623Z" fill="#3F3D56"/>
<path d="M201.22 136.963H199.753V135.497H199.491V136.963H198.023V137.226H199.491V138.692H199.753V137.226H201.22V136.963Z" fill="#E7EFFD"/>
<path d="M506.204 106.491H504.736V105.025H504.468V106.491H503.006V106.753H504.468V108.219H504.736V106.753H506.204V106.491Z" fill="#E7EFFD"/>
<path d="M235.979 100.561H234.512V99.0945H234.243V100.561H232.782V100.829H234.243V102.289H234.512V100.829H235.979V100.561Z" fill="#E7EFFD"/>
<path d="M233.742 195.227C234.273 195.227 234.703 194.797 234.703 194.268C234.703 193.738 234.273 193.308 233.742 193.308C233.212 193.308 232.782 193.738 232.782 194.268C232.782 194.797 233.212 195.227 233.742 195.227Z" fill="#E7EFFD"/>
<path d="M452.762 109.5C453.293 109.5 453.723 109.071 453.723 108.541C453.723 108.011 453.293 107.581 452.762 107.581C452.232 107.581 451.802 108.011 451.802 108.541C451.802 109.071 452.232 109.5 452.762 109.5Z" fill="#E7EFFD"/>
<path d="M549.272 154.944C549.802 154.944 550.232 154.515 550.232 153.985C550.232 153.455 549.802 153.025 549.272 153.025C548.741 153.025 548.311 153.455 548.311 153.985C548.311 154.515 548.741 154.944 549.272 154.944Z" fill="#E7EFFD"/>
<path d="M398.128 163.175C398.659 163.175 399.089 162.745 399.089 162.215C399.089 161.685 398.659 161.256 398.128 161.256C397.598 161.256 397.168 161.685 397.168 162.215C397.168 162.745 397.598 163.175 398.128 163.175Z" fill="#E7EFFD"/>
<path d="M260.388 351.775C260.388 351.775 248.458 349.003 242.905 346.447C237.351 343.89 206.231 338.991 199.407 353.694C192.583 368.397 208.79 387.987 212.84 390.12C216.891 392.254 256.338 363.057 256.338 363.057L287.452 376.168L293.417 355.821L260.388 351.775Z" fill="#65617D"/>
<path d="M387.033 355.821H295.523C283.389 355.821 273.553 365.649 273.553 377.772V380.948C273.553 393.071 283.389 402.898 295.523 402.898H387.033C399.166 402.898 409.003 393.071 409.003 380.948V377.772C409.003 365.649 399.166 355.821 387.033 355.821Z" fill="#65617D"/>
<path opacity="0.1" d="M409.003 379.357C409.007 383.987 407.641 388.516 405.077 392.373C404.206 393.68 403.207 394.898 402.095 396.009C399.91 398.198 397.313 399.935 394.454 401.118C391.594 402.301 388.529 402.908 385.434 402.904H297.115C290.866 402.904 284.873 400.424 280.454 396.009C276.036 391.594 273.553 385.606 273.553 379.363C273.553 373.119 276.036 367.131 280.454 362.716C284.873 358.302 290.866 355.821 297.115 355.821H385.44C391.688 355.821 397.681 358.301 402.099 362.714C406.518 367.128 409.001 373.114 409.003 379.357V379.357Z" fill="black"/>
<path d="M335.256 380.734C335.256 380.734 321.674 384.22 310.59 384.065C299.507 383.91 247.665 405.431 247.665 405.431C247.665 405.431 240.202 422.429 252.377 421.022C264.552 419.616 270.481 413.715 279.065 413.715C287.649 413.715 314.653 410.735 314.653 410.735L340.637 391.557L335.256 380.734Z" fill="#FBBEBE"/>
<path d="M343.756 220.336L319.395 225.134L317.814 225.449C317.814 225.449 298.553 220.336 297.915 219.907C297.276 219.478 279.793 195.942 279.793 195.942C279.793 195.942 288.633 196.038 295.576 192.039C295.827 191.895 296.071 191.741 296.316 191.592C299.369 189.752 301.689 186.91 302.878 183.552C303.003 183.2 303.11 182.837 303.212 182.455C303.951 179.606 303.999 176.156 303.009 171.978C300.623 162.043 306.111 159.307 313.382 159.545C323.887 159.891 338.185 166.441 338.185 166.441C338.37 169.784 339.131 173.071 340.434 176.156C340.547 176.442 340.672 176.751 340.804 177.026C343.412 182.908 347.986 187.701 353.742 190.584L354.511 190.966C355.287 191.335 356.104 191.687 356.951 192.003C375.526 199.035 343.756 220.336 343.756 220.336Z" fill="#FBBEBE"/>
<path opacity="0.1" d="M340.827 177.026C336.195 182.266 329.91 185.769 323.014 186.956C316.117 188.143 309.022 186.942 302.901 183.552C303.951 180.5 304.148 176.704 303.033 171.978C297.276 147.691 338.227 166.441 338.227 166.441C338.429 170.1 339.311 173.689 340.827 177.026V177.026Z" fill="black"/>
<path d="M351.611 148.104C351.621 153.843 350.008 159.469 346.958 164.333C345.965 165.928 344.825 167.426 343.552 168.808C338.179 174.692 330.716 178.243 322.758 178.702C322.161 178.743 321.523 178.761 320.903 178.761C314.83 178.761 308.894 176.962 303.845 173.592C298.796 170.221 294.861 165.43 292.537 159.825C290.214 154.22 289.606 148.052 290.79 142.102C291.975 136.151 294.899 130.685 299.193 126.395C303.487 122.105 308.957 119.184 314.913 118C320.869 116.816 327.042 117.424 332.652 119.746C338.262 122.067 343.057 125.999 346.431 131.044C349.804 136.088 351.605 142.019 351.605 148.086L351.611 148.104Z" fill="#FBBEBE"/>
<path opacity="0.1" d="M343.756 220.336L319.395 225.134L317.814 225.449C317.814 225.449 298.553 220.336 297.915 219.907C297.276 219.478 279.793 195.942 279.793 195.942C279.793 195.942 288.633 196.038 295.576 192.039C295.827 191.896 296.071 191.741 296.316 191.592C298.523 193.975 305.747 200.716 317.098 200.668C318.556 200.669 320.011 200.563 321.453 200.353C324.877 199.828 328.331 199.488 331.778 199.161C338.382 198.469 348.481 196.467 353.784 190.638L354.553 191.019C355.329 191.389 356.146 191.741 356.993 192.056C375.526 199.035 343.756 220.336 343.756 220.336Z" fill="black"/>
<path d="M371.261 282.539C371.47 287.229 374.888 340.058 374.888 340.058H268.489L269.211 306.796L269.807 280.191L269.998 271.46L270.851 241.213L267.767 238.496L251.005 223.739C251.13 223.346 255.676 209.882 255.043 207.987C254.411 206.092 263.15 198.404 266.139 197.975C267.837 197.581 269.507 197.073 271.137 196.455C276.166 194.667 282.877 192.092 283.616 192.497C284.66 193.058 295.123 192.086 295.546 192.044C295.546 192.044 303.265 202.015 317.057 201.956C318.58 201.949 321.065 208.21 322.5 207.987C325.924 207.463 328.271 200.746 331.719 200.388C338.656 199.667 349.441 197.492 354.494 190.972C354.494 190.972 356.933 191.073 361.622 192.497C366.31 193.922 372.073 193.928 372.073 193.928C374.849 194.7 377.559 195.696 380.173 196.908C382.657 198.086 385.222 199.082 387.85 199.888C387.85 199.888 392.754 201.163 394.036 213.518C395.319 225.873 396.613 232.905 396.613 232.905L371.261 254.843C371.261 254.843 371.053 277.831 371.261 282.539Z" fill="#6C63FF"/>
<path d="M251.011 319.395L254.739 325.361L268.704 330.277L278.301 312.791L269.455 306.825L255.276 301.289L247.176 305.973L251.011 319.395Z" fill="#FBBEBE"/>
<path d="M370.194 348.789C370.194 348.789 390.022 347.299 398.128 338.138C406.235 328.978 426.695 324.079 426.695 324.079C426.695 324.079 475.949 318.328 456.52 361.787C456.52 361.787 455.244 366.686 452.685 368.176C450.126 369.666 443.946 373.504 443.946 373.504L368.291 366.901L370.194 348.789Z" fill="#65617D"/>
<path opacity="0.1" d="M409.003 379.357C409.007 383.987 407.641 388.516 405.077 392.373C392.348 393.5 364.157 396.146 358.257 397.791C351.01 399.799 336.342 396.301 334.737 395.907L334.588 395.872C334.588 395.872 331.761 387.301 330.412 381.818C329.816 379.327 329.5 377.474 329.893 377.336C331.176 376.913 342.903 373.713 342.689 375.548C342.474 377.384 377.883 361.805 377.883 361.805L378.968 375.441C382.565 379.554 409.003 373.439 409.003 379.357Z" fill="black"/>
<path d="M445.461 367.962L443.97 373.504C440.564 377.291 436.527 380.461 432.04 382.873C425.001 386.497 412.635 392.463 412.635 392.463C412.635 392.463 367.223 396.295 359.546 398.422C351.869 400.55 335.876 396.503 335.876 396.503C335.876 396.503 329.911 378.397 331.188 377.968C332.464 377.539 344.192 374.351 343.983 376.18C343.774 378.01 379.177 362.437 379.177 362.437L445.461 367.962Z" fill="#65617D"/>
<path d="M319.019 415.724C319.019 415.724 341.341 417.279 346.649 419.3C351.958 421.32 389.884 418.525 389.884 418.525C389.884 418.525 414.389 419.002 421.41 421.1C428.431 423.198 425.937 399.644 412.981 397.004C400.025 394.364 381.766 398.25 381.766 398.25C381.766 398.25 361.163 395.597 358.663 395.27C356.164 394.942 339.706 395.419 339.706 395.419L319.019 415.724Z" fill="#FBBEBE"/>
<path opacity="0.1" d="M231.302 356.93C231.302 356.93 260.806 359.582 268.918 364.415L231.302 356.93Z" fill="black"/>
<path opacity="0.1" d="M415.326 337.596C415.326 337.596 392.223 343.21 383.168 351.471L415.326 337.596Z" fill="black"/>
<path opacity="0.1" d="M233.02 350.225C233.492 350.38 246.603 352.096 246.287 353.342C245.971 354.588 233.02 350.225 233.02 350.225Z" fill="black"/>
<path opacity="0.1" d="M212.417 383.088L214.123 389.483C214.123 389.483 217.959 392.463 218.812 393.953C219.665 395.443 224.568 395.872 224.568 395.872C224.568 395.872 229.686 398.214 230.968 399.489C232.251 400.765 246.102 404.817 259.112 406.522C272.122 408.226 296.209 411.421 301.327 413.125C304.943 414.246 308.655 415.03 312.416 415.468C312.416 415.468 322.008 420.581 327.126 419.306C332.244 418.03 340.983 394.805 340.983 394.805C340.983 394.805 307.298 386.926 306.23 384.369C305.162 381.812 272.754 369.887 272.754 369.887L253.564 370.34L212.417 383.088Z" fill="black"/>
<path d="M211.134 383.725L212.84 390.12C212.84 390.12 216.682 393.1 217.535 394.59C218.388 396.08 223.291 396.509 223.291 396.509C223.291 396.509 228.409 398.852 229.686 400.133C230.962 401.414 244.825 405.455 257.829 407.16C270.833 408.864 294.932 412.059 300.05 413.763C303.665 414.88 307.375 415.662 311.133 416.099C311.133 416.099 320.731 421.207 325.849 419.932C330.967 418.656 339.706 395.431 339.706 395.431C339.706 395.431 306.015 387.552 304.953 384.995C303.892 382.438 256.338 363.057 256.338 363.057L241.425 359.648L211.134 383.725Z" fill="#65617D"/>
<path d="M254.733 221.611L251.005 223.745L243.847 272.741C243.847 272.741 240.047 276.365 241.234 278.701C242.421 281.037 241.002 285.09 241.002 285.09C241.002 285.09 234.583 287.861 236.009 289.566C237.435 291.27 236.784 294.465 235.806 296.592C234.828 298.72 233.223 302.552 235.806 303.196C238.389 303.84 236.247 312.136 236.247 312.136C236.247 312.136 245.249 311.111 244.599 316.391C244.33 318.525 254.775 325.331 254.775 325.331C254.775 325.331 242.905 303.816 269.497 306.796L271.782 294.667C271.782 294.667 274.066 287.837 271.782 285.728C269.497 283.618 272.295 273.48 272.295 273.48L272.796 229.49L254.733 221.611Z" fill="#6C63FF"/>
<path opacity="0.1" d="M248.941 284.887C249.412 285.668 263.77 287.271 264.707 289.816C265.643 292.361 248.941 284.887 248.941 284.887Z" fill="black"/>
<path opacity="0.1" d="M244.414 297.051C244.414 297.051 246.364 290.966 250.975 292.057C255.586 293.148 244.414 297.051 244.414 297.051Z" fill="black"/>
<path opacity="0.1" d="M241.92 305.937C241.92 305.937 245.35 297.826 250.033 298.452C254.715 299.078 241.92 305.937 241.92 305.937Z" fill="black"/>
<path d="M398.128 305.759L396.631 314.698C396.631 314.698 381.283 342.823 378.509 343.246C375.735 343.669 360.614 324.502 360.614 324.502L356.563 305.753L372.508 302.731L379.589 295.74C379.589 295.74 397.484 297.451 398.128 305.759Z" fill="#FBBEBE"/>
<path d="M390.875 228.859L396.631 232.905V254.42C396.631 254.42 401.111 253.991 400.043 256.339C398.975 258.688 396.846 259.957 398.766 262.091C400.687 264.224 400.258 268.265 398.552 268.694C396.846 269.123 393.863 270.822 396.631 271.889C399.399 272.956 401.111 274.869 401.111 276.15C401.111 277.431 401.325 279.344 400.258 280.834C399.19 282.324 398.128 285.733 399.405 287.015C400.681 288.296 398.337 294.894 398.337 294.894C398.337 294.894 402.393 305.335 398.552 308.315C398.552 308.315 396.846 314.275 396.631 314.704C396.631 314.704 399.321 293.97 372.496 302.737C372.496 302.737 372.001 294.834 371.816 291.908C371.631 288.982 374.131 288.123 372.753 286.377C371.375 284.631 367.927 280.62 369.555 279.559C371.184 278.498 370.623 276.579 369.979 275.083C369.335 273.587 367.086 273.593 369.126 271.781C371.166 269.97 372.377 268.271 371.178 267.419C369.979 266.567 367.897 263.789 369.555 262.514C371.214 261.238 371.261 242.703 371.261 242.703C371.261 242.703 378.085 215.437 390.875 228.859Z" fill="#6C63FF"/>
<path opacity="0.1" d="M388.166 265.512C388.166 265.512 396.363 263.289 396.631 265.512C396.899 267.735 388.166 265.512 388.166 265.512Z" fill="black"/>
<path opacity="0.1" d="M378.956 271.632C378.956 271.632 390.195 268.825 391.596 271.007C392.998 273.188 378.956 271.632 378.956 271.632Z" fill="black"/>
<path opacity="0.1" d="M376.457 277.557C376.457 277.557 393.314 275.214 394.406 278.647C395.498 282.08 376.457 277.557 376.457 277.557Z" fill="black"/>
<path opacity="0.1" d="M378.956 284.887C379.583 285.042 395.187 286.133 395.498 289.095C395.808 292.057 378.956 284.887 378.956 284.887Z" fill="black"/>
<path d="M380.99 294.488H259.816C256.366 294.488 253.57 297.282 253.57 300.728V364.1C253.57 367.546 256.366 370.34 259.816 370.34H380.99C384.44 370.34 387.236 367.546 387.236 364.1V300.728C387.236 297.282 384.44 294.488 380.99 294.488Z" fill="#3F3D56"/>
<path d="M320.403 337.34C323.124 337.34 325.33 335.136 325.33 332.417C325.33 329.698 323.124 327.494 320.403 327.494C317.682 327.494 315.476 329.698 315.476 332.417C315.476 335.136 317.682 337.34 320.403 337.34Z" fill="#E7EFFD"/>
<g opacity="0.2">
<path opacity="0.2" d="M271.137 194.166C271.212 191.104 270.925 188.043 270.284 185.048C269.014 179.088 266.353 173.253 266.109 167.269C265.763 173.932 268.883 180.381 270.284 186.937C270.793 189.315 271.078 191.735 271.137 194.166V194.166Z" fill="black"/>
<path opacity="0.2" d="M279.697 281.073C279.471 282.682 278.671 284.208 277.204 284.81C275.414 285.549 273.249 284.565 272.05 283.022C270.851 281.478 270.374 279.517 269.938 277.61C268.483 271.257 267.099 264.749 266.956 258.27C266.813 265.381 268.328 272.544 269.938 279.529C270.374 281.43 270.845 283.403 272.05 284.941C273.255 286.478 275.396 287.468 277.204 286.729C279.166 285.924 279.936 283.475 279.739 281.365C279.697 281.264 279.697 281.168 279.697 281.073Z" fill="black"/>
<path opacity="0.2" d="M280.001 125.544C280.051 123.272 279.928 120.998 279.632 118.744C279.411 117.087 279.131 115.323 279.035 113.601C278.898 115.895 279.315 118.369 279.632 120.663C279.844 122.282 279.968 123.912 280.001 125.544V125.544Z" fill="black"/>
<path opacity="0.2" d="M268.877 240.79C268.614 233.597 263.305 227.678 260.71 220.986C260.296 219.932 260.016 218.831 259.875 217.708C259.731 219.482 260.018 221.265 260.71 222.905C263.263 229.508 268.429 235.319 268.847 242.352C268.877 241.833 268.894 241.309 268.877 240.79Z" fill="black"/>
<path opacity="0.2" d="M363.531 134.246C361.503 139.896 356.808 144.884 357.208 150.874C357.208 150.957 357.208 151.047 357.208 151.136C357.649 145.862 361.664 141.284 363.501 136.165C364.328 133.826 364.683 131.347 364.545 128.87C364.479 130.703 364.138 132.515 363.531 134.246V134.246Z" fill="black"/>
<path opacity="0.2" d="M315.876 232.828C315.645 234.628 315.56 236.444 315.619 238.257C315.629 237.083 315.714 235.91 315.876 234.747C316.943 227.422 322.079 220.717 321.614 213.452C321.202 220.02 316.848 226.153 315.876 232.828Z" fill="black"/>
</g>
<path d="M493.248 334.449C493.248 334.449 489.197 353.3 507.224 355.535L508.339 353.443C508.339 353.443 494.381 340.332 493.248 334.449Z" fill="#6C63FF"/>
<path d="M514.09 353.318L509.914 354.206L509.496 354.296C509.496 354.296 498.312 345.225 498.455 324.973C499.952 327.957 501.74 330.786 503.794 333.418C508.214 339.277 513.254 347.102 514.09 353.318Z" fill="#6C63FF"/>
<path d="M515.509 355.261C515.179 355.474 514.805 355.611 514.415 355.662C514.025 355.712 513.628 355.675 513.254 355.553C502.517 353.038 506.126 318.006 506.126 318.006C506.723 318.286 507.373 322.774 509.848 328.495C514.191 338.621 518.963 352.722 515.509 355.261Z" fill="#6C63FF"/>
<path d="M539.382 334.449C539.382 334.449 540.079 353.3 522.053 355.535L520.937 353.443C520.937 353.443 538.266 340.332 539.382 334.449Z" fill="#6C63FF"/>
<path d="M534.216 324.973C534.347 345.237 519.816 354.296 519.816 354.296L519.399 354.206L515.223 353.318C516.052 347.102 521.105 339.277 525.531 333.418C528.034 330.228 530.955 327.387 534.216 324.973V324.973Z" fill="#6C63FF"/>
<path d="M519.333 353.426C518.688 354.211 517.872 354.839 516.947 355.261C516.665 355.388 516.371 355.486 516.07 355.553C513.421 356.149 512.491 354.266 512.646 351.024C512.897 345.249 516.529 335.236 519.804 327.78C522.154 322.381 525.99 318.292 526.563 318.024C526.527 317.994 526.366 345.284 519.333 353.426Z" fill="#6C63FF"/>
<path d="M516.326 305.705C516.326 305.705 504.307 348.294 514.65 354.719C524.994 361.144 518.981 309.478 516.326 305.705Z" fill="#6C63FF"/>
<path opacity="0.1" d="M493.248 334.449C493.248 334.449 489.197 353.3 507.224 355.535L508.339 353.443C508.339 353.443 494.381 340.332 493.248 334.449Z" fill="black"/>
<path opacity="0.1" d="M514.09 353.318L509.914 354.206L509.496 354.296C509.496 354.296 498.312 345.225 498.455 324.973C499.952 327.957 501.74 330.786 503.794 333.418C508.214 339.277 513.254 347.102 514.09 353.318Z" fill="black"/>
<path opacity="0.1" d="M515.509 355.261C515.179 355.474 514.805 355.611 514.415 355.662C514.025 355.712 513.628 355.675 513.254 355.553C502.517 353.038 506.126 318.006 506.126 318.006C506.723 318.286 507.373 322.774 509.848 328.495C514.191 338.621 518.963 352.722 515.509 355.261Z" fill="black"/>
<path opacity="0.1" d="M539.382 334.449C539.382 334.449 540.079 353.3 522.053 355.535L520.937 353.443C520.937 353.443 538.266 340.332 539.382 334.449Z" fill="black"/>
<path opacity="0.1" d="M534.216 324.973C534.347 345.237 519.816 354.296 519.816 354.296L519.399 354.206L515.223 353.318C516.052 347.102 521.105 339.277 525.531 333.418C528.034 330.228 530.955 327.387 534.216 324.973V324.973Z" fill="black"/>
<path opacity="0.1" d="M519.333 353.426C518.688 354.211 517.872 354.839 516.947 355.261C516.665 355.388 516.371 355.486 516.07 355.553C513.421 356.149 512.491 354.266 512.646 351.024C512.897 345.249 516.529 335.236 519.804 327.78C522.154 322.381 525.99 318.292 526.563 318.024C526.527 317.994 526.366 345.284 519.333 353.426Z" fill="black"/>
<path opacity="0.1" d="M516.326 305.705C516.326 305.705 504.307 348.294 514.65 354.719C524.994 361.144 518.981 309.478 516.326 305.705Z" fill="black"/>
<path d="M493.248 334.449C493.248 334.449 490.862 353.3 508.9 355.535L510.015 353.443C510.015 353.443 494.381 340.332 493.248 334.449Z" fill="#6C63FF"/>
<path d="M515.766 353.318L511.59 354.206L511.167 354.296C511.167 354.296 498.306 345.225 498.449 324.973C498.449 324.973 501.742 328.501 505.464 333.418C509.89 339.277 514.931 347.102 515.766 353.318Z" fill="#6C63FF"/>
<path opacity="0.1" d="M515.766 353.318L511.59 354.206C507.611 350.72 506.037 341.619 505.464 333.418C509.89 339.277 514.931 347.102 515.766 353.318Z" fill="black"/>
<path d="M517.185 355.261C516.855 355.474 516.481 355.611 516.091 355.662C515.701 355.712 515.305 355.675 514.931 355.553C504.164 353.038 506.126 318.006 506.126 318.006C506.723 318.286 509.049 322.774 511.495 328.495C515.867 338.621 520.639 352.722 517.185 355.261Z" fill="#6C63FF"/>
<path d="M539.382 334.449C539.382 334.449 541.768 353.3 523.729 355.535L522.614 353.443C522.614 353.443 538.266 340.332 539.382 334.449Z" fill="#6C63FF"/>
<path d="M534.216 324.973C534.347 345.237 521.492 354.296 521.492 354.296L521.075 354.206L516.899 353.318C517.734 347.102 522.781 339.277 527.207 333.418C530.917 328.489 534.216 324.973 534.216 324.973Z" fill="#6C63FF"/>
<path opacity="0.1" d="M527.189 333.418C526.652 341.071 525.25 349.51 521.85 353.426C521.613 353.706 521.354 353.967 521.075 354.206L516.899 353.318C517.704 347.102 522.763 339.277 527.189 333.418Z" fill="black"/>
<path d="M521.009 353.426C520.364 354.211 519.548 354.839 518.623 355.261C518.339 355.388 518.044 355.486 517.74 355.553C515.092 356.149 514.161 354.266 514.316 351.024C514.573 345.249 518.2 335.236 521.474 327.78C523.825 322.381 525.984 318.292 526.557 318.024C526.527 317.994 528.042 345.284 521.009 353.426Z" fill="#6C63FF"/>
<path opacity="0.1" d="M517.185 355.261C516.577 355.258 515.983 355.069 515.485 354.719C510.421 351.566 510.32 339.736 511.525 328.495C515.867 338.621 520.639 352.722 517.185 355.261Z" fill="black"/>
<path opacity="0.1" d="M521.009 353.426C520.413 354.683 519.643 355.351 518.623 355.261C518.107 355.192 517.613 355.007 517.179 354.719C515.864 353.814 514.863 352.523 514.316 351.024C514.573 345.249 518.2 335.236 521.474 327.78C522.608 338.144 522.995 349.164 521.009 353.426Z" fill="black"/>
<path d="M516.326 305.705C516.326 305.705 505.983 348.294 516.326 354.719C526.67 361.144 518.981 309.478 516.326 305.705Z" fill="#6C63FF"/>
<path d="M536.172 352.621H493.128V359.743H499.696L499.857 360.583L502.487 374.404H527.511L530.142 360.583L530.303 359.743H536.172V352.621Z" fill="#D4DFEC"/>
<path opacity="0.1" d="M536.154 352.621H493.11V359.743H499.678L499.839 360.583L502.47 374.404H527.493L530.124 360.583L530.285 359.743H536.154V352.621Z" fill="black"/>
<path d="M532.54 356.811L531.818 360.583L529.187 374.404H504.164L501.533 360.583L500.811 356.811H532.54Z" fill="#D4DFEC"/>
<path opacity="0.1" d="M532.54 356.811L531.818 360.583H501.533L500.811 356.811H532.54Z" fill="black"/>
<path d="M537.849 352.621H494.804V359.743H537.849V352.621Z" fill="#D4DFEC"/>
<path d="M170.375 307.034C169.763 307.875 169.273 308.798 168.92 309.776C168.83 310.014 168.741 310.288 168.651 310.55C168.49 310.472 168.32 310.413 168.144 310.377C167.4 310.188 166.631 310.122 165.865 310.181C165.865 309.883 165.895 309.585 165.907 309.245C166.003 305.872 165.603 301.181 162.388 303.166C159.304 305.085 161.505 308.268 163.497 310.318C163.67 310.497 163.837 310.658 164.004 310.818C162.215 312.124 161.845 315.122 161.541 318.262C161.236 321.403 158.558 324.818 156.804 326.785C156.631 326.982 156.464 327.16 156.303 327.327C155.59 326.754 154.762 326.339 153.875 326.111C152.989 325.883 152.063 325.846 151.161 326.004L150.923 325.134C149.491 319.967 146.515 311.015 142.721 309.042L143.222 308.411C144.832 306.301 146.646 303.172 143.968 302.373C141.289 301.575 141.045 305.085 141.194 307.737C141.194 308.065 141.241 308.381 141.271 308.673C140.735 308.698 140.209 308.832 139.726 309.066C139.243 309.301 138.813 309.632 138.462 310.038C138.336 309.883 138.199 309.722 138.05 309.549C135.879 306.98 131.888 302.922 130.683 305.973C129.562 308.834 133.069 312.529 135.539 314.71L135.694 314.841C134.036 321.564 141.265 327.035 145.166 329.431C145.339 329.544 145.506 329.646 145.668 329.741C140.299 336.064 136.976 347.925 136.976 347.925L152.044 350.66C152.044 350.66 162.024 342.06 160.747 333.973H160.849C170.816 331.976 173.083 321.356 171.532 315.05L171.705 314.979C173.52 314.235 175.111 313.034 176.322 311.492C179.09 307.63 173.238 303.249 170.375 307.034Z" fill="#6C63FF"/>
<path opacity="0.1" d="M170.375 307.034C169.763 307.875 169.273 308.798 168.92 309.776C168.83 310.014 168.741 310.288 168.651 310.55C168.49 310.472 168.32 310.413 168.144 310.377C167.4 310.188 166.631 310.122 165.865 310.181C165.865 309.883 165.895 309.585 165.907 309.245C166.003 305.872 165.603 301.181 162.388 303.166C159.304 305.085 161.505 308.268 163.497 310.318C163.67 310.497 163.837 310.658 164.004 310.818C162.215 312.124 161.845 315.122 161.541 318.262C161.236 321.403 158.558 324.818 156.804 326.785C156.631 326.982 156.464 327.16 156.303 327.327C155.59 326.754 154.762 326.339 153.875 326.111C152.989 325.883 152.063 325.846 151.161 326.004L150.923 325.134C149.491 319.967 146.515 311.015 142.721 309.042L143.222 308.411C144.832 306.301 146.646 303.172 143.968 302.373C141.289 301.575 141.045 305.085 141.194 307.737C141.194 308.065 141.241 308.381 141.271 308.673C140.735 308.698 140.209 308.832 139.726 309.066C139.243 309.301 138.813 309.632 138.462 310.038C138.336 309.883 138.199 309.722 138.05 309.549C135.879 306.98 131.888 302.922 130.683 305.973C129.562 308.834 133.069 312.529 135.539 314.71L135.694 314.841C134.036 321.564 141.265 327.035 145.166 329.431C145.339 329.544 145.506 329.646 145.668 329.741C140.299 336.064 136.976 347.925 136.976 347.925L152.044 350.66C152.044 350.66 162.024 342.06 160.747 333.973H160.849C170.816 331.976 173.083 321.356 171.532 315.05L171.705 314.979C173.52 314.235 175.111 313.034 176.322 311.492C179.09 307.63 173.238 303.249 170.375 307.034Z" fill="black"/>
<path d="M140.43 311.385L138.67 316.534C138.67 316.534 137.692 315.843 136.457 314.746C133.988 312.589 130.492 308.87 131.602 306.009C132.795 302.934 136.797 306.992 138.975 309.585C139.846 310.61 140.43 311.385 140.43 311.385Z" fill="#6C63FF"/>
<path d="M144.14 308.452C143.605 309.153 143.034 309.826 142.429 310.467C142.277 309.571 142.171 308.668 142.112 307.761C141.969 305.127 142.244 301.628 144.886 302.397C147.529 303.166 145.751 306.343 144.14 308.452Z" fill="#6C63FF"/>
<path d="M166.832 309.263C166.772 310.956 166.611 312.308 166.611 312.308C165.837 311.704 165.104 311.049 164.416 310.348C162.424 308.286 160.24 305.103 163.312 303.196C166.528 301.199 166.921 305.89 166.832 309.263Z" fill="#6C63FF"/>
<path d="M177.223 311.48C176.012 313.022 174.421 314.223 172.606 314.967C172.102 315.187 171.584 315.374 171.055 315.527L168.985 312.618C169.204 311.658 169.491 310.714 169.844 309.793C170.195 308.814 170.685 307.891 171.3 307.052C174.163 303.249 180.009 307.63 177.223 311.48Z" fill="#6C63FF"/>
<path opacity="0.1" d="M138.975 309.573C139.846 310.598 140.43 311.361 140.43 311.361L138.671 316.51C138.671 316.51 137.692 315.819 136.457 314.722C136.732 313.074 137.413 311.519 138.438 310.199C138.617 309.984 138.796 309.776 138.975 309.573Z" fill="black"/>
<path opacity="0.1" d="M144.141 308.452C143.605 309.153 143.034 309.825 142.429 310.467C142.277 309.571 142.171 308.668 142.112 307.761C142.844 307.774 143.554 308.016 144.141 308.452V308.452Z" fill="black"/>
<path d="M152.79 328.871L148.417 330.796C147.618 330.397 146.84 329.957 146.085 329.479C141.486 326.654 132.24 319.544 138.438 311.158C144.636 302.773 149.807 317.809 151.841 325.164C152.462 327.363 152.79 328.871 152.79 328.871Z" fill="#6C63FF"/>
<path opacity="0.1" d="M164.416 310.348C165.053 309.691 165.917 309.303 166.832 309.263C166.772 310.956 166.611 312.308 166.611 312.308C165.837 311.704 165.104 311.049 164.416 310.348V310.348Z" fill="black"/>
<path opacity="0.1" d="M172.606 314.967C172.102 315.187 171.584 315.374 171.055 315.527L168.985 312.618C169.204 311.658 169.491 310.714 169.844 309.793C171.18 310.574 172.164 312.517 172.606 314.967Z" fill="black"/>
<path d="M161.743 333.961C161.505 334.008 161.254 334.056 161.01 334.092C146.342 336.321 156.172 328.412 156.172 328.412C156.172 328.412 156.834 327.816 157.729 326.815C159.519 324.86 162.161 321.451 162.465 318.292C162.925 313.524 163.455 309.084 169.069 310.395C174.574 311.683 175.624 331.183 161.743 333.961Z" fill="#6C63FF"/>
<path d="M161.475 370.447H133.451V377.807H161.475V370.447Z" fill="#D4DFEC"/>
<path d="M165.609 346.518H128.995V372.211H165.609V346.518Z" fill="#D4DFEC"/>
<path opacity="0.1" d="M161.475 370.447H133.451V377.807H161.475V370.447Z" fill="black"/>
<path opacity="0.1" d="M165.609 346.518H128.995V372.211H165.609V346.518Z" fill="black"/>
<path d="M163.312 370.447H135.288V377.807H163.312V370.447Z" fill="#D4DFEC"/>
<path opacity="0.1" d="M151.841 325.164C152.438 327.363 152.79 328.871 152.79 328.871L148.417 330.796C147.618 330.397 146.84 329.957 146.085 329.479C147.797 327.297 149.73 325.67 151.841 325.164Z" fill="black"/>
<path opacity="0.1" d="M161.744 333.961C161.505 334.008 161.254 334.056 161.01 334.092C146.342 336.321 156.172 328.412 156.172 328.412C156.172 328.412 156.834 327.816 157.729 326.815C160.467 329.002 161.588 331.469 161.744 333.961Z" fill="black"/>
<path d="M137.901 347.972C137.901 347.972 146.115 318.602 157.628 327.649C169.14 336.696 152.945 350.66 152.945 350.66L137.901 347.972Z" fill="#6C63FF"/>
<path opacity="0.1" d="M142.047 316.683C142.554 316.683 142.965 316.272 142.965 315.765C142.965 315.258 142.554 314.847 142.047 314.847C141.539 314.847 141.128 315.258 141.128 315.765C141.128 316.272 141.539 316.683 142.047 316.683Z" fill="black"/>
<path opacity="0.1" d="M141.969 320.974C142.477 320.974 142.888 320.563 142.888 320.056C142.888 319.549 142.477 319.138 141.969 319.138C141.462 319.138 141.051 319.549 141.051 320.056C141.051 320.563 141.462 320.974 141.969 320.974Z" fill="black"/>
<path opacity="0.1" d="M168.681 317.523C169.188 317.523 169.6 317.112 169.6 316.605C169.6 316.099 169.188 315.688 168.681 315.688C168.174 315.688 167.762 316.099 167.762 316.605C167.762 317.112 168.174 317.523 168.681 317.523Z" fill="black"/>
<path opacity="0.1" d="M147.189 339.533C147.696 339.533 148.107 339.122 148.107 338.615C148.107 338.108 147.696 337.697 147.189 337.697C146.681 337.697 146.27 338.108 146.27 338.615C146.27 339.122 146.681 339.533 147.189 339.533Z" fill="black"/>
<path opacity="0.1" d="M166.766 324.657C167.273 324.657 167.685 324.246 167.685 323.739C167.685 323.233 167.273 322.822 166.766 322.822C166.259 322.822 165.847 323.233 165.847 323.739C165.847 324.246 166.259 324.657 166.766 324.657Z" fill="black"/>
<path opacity="0.1" d="M157.246 334.169C157.753 334.169 158.164 333.758 158.164 333.251C158.164 332.744 157.753 332.334 157.246 332.334C156.738 332.334 156.327 332.744 156.327 333.251C156.327 333.758 156.738 334.169 157.246 334.169Z" fill="black"/>
<path opacity="0.1" d="M145.196 318.519C145.704 318.519 146.115 318.108 146.115 317.601C146.115 317.094 145.704 316.683 145.196 316.683C144.689 316.683 144.278 317.094 144.278 317.601C144.278 318.108 144.689 318.519 145.196 318.519Z" fill="black"/>
<path opacity="0.1" d="M166.152 320.283C166.659 320.283 167.07 319.872 167.07 319.365C167.07 318.858 166.659 318.447 166.152 318.447C165.644 318.447 165.233 318.858 165.233 319.365C165.233 319.872 165.644 320.283 166.152 320.283Z" fill="black"/>
<path opacity="0.1" d="M163.002 327.417C163.509 327.417 163.921 327.006 163.921 326.499C163.921 325.992 163.509 325.581 163.002 325.581C162.495 325.581 162.083 325.992 162.083 326.499C162.083 327.006 162.495 327.417 163.002 327.417Z" fill="black"/>
<path opacity="0.1" d="M153.333 338.848C153.84 338.848 154.251 338.437 154.251 337.93C154.251 337.423 153.84 337.012 153.333 337.012C152.825 337.012 152.414 337.423 152.414 337.93C152.414 338.437 152.825 338.848 153.333 338.848Z" fill="black"/>
<path opacity="0.1" d="M151.334 334.318C151.842 334.318 152.253 333.907 152.253 333.4C152.253 332.893 151.842 332.483 151.334 332.483C150.827 332.483 150.416 332.893 150.416 333.4C150.416 333.907 150.827 334.318 151.334 334.318Z" fill="black"/>
<path opacity="0.1" d="M146.574 324.121C147.082 324.121 147.493 323.71 147.493 323.203C147.493 322.696 147.082 322.285 146.574 322.285C146.067 322.285 145.656 322.696 145.656 323.203C145.656 323.71 146.067 324.121 146.574 324.121Z" fill="black"/>
<path opacity="0.1" d="M163.312 370.447H135.288V373.135H163.312V370.447Z" fill="black"/>
<path d="M167.452 346.518H130.838V372.211H167.452V346.518Z" fill="#D4DFEC"/>
<path opacity="0.1" d="M154.561 342.99C155.069 342.99 155.48 342.579 155.48 342.072C155.48 341.565 155.069 341.154 154.561 341.154C154.054 341.154 153.643 341.565 153.643 342.072C153.643 342.579 154.054 342.99 154.561 342.99Z" fill="black"/>
<path opacity="0.1" d="M149.032 344.14C149.539 344.14 149.95 343.729 149.95 343.222C149.95 342.715 149.539 342.304 149.032 342.304C148.525 342.304 148.113 342.715 148.113 343.222C148.113 343.729 148.525 344.14 149.032 344.14Z" fill="black"/>
<path d="M338.147 142.138L350.647 143.138C354.23 140.979 349.185 160.841 350.647 155.138C351.799 149.753 355.691 140.922 353.647 126.638C350.885 119.18 347.445 116.122 337.147 113.138C329.565 108.77 324.568 107.732 313.147 110.638C307.678 112.728 302.375 113.025 301.147 117.138C295.653 118.459 292.442 120.815 289.647 126.638C285.972 135.859 289.585 147.189 289.647 153.138C292.402 154.577 292.297 141.831 297.647 140.138C303.729 138.214 313.692 138.496 324 134.638C326.508 138.807 331.107 140.501 338.147 142.138Z" fill="black" stroke="black"/>
</g>
<defs>
<linearGradient id="paint0_linear" x1="320.022" y1="366.54" x2="320.022" y2="-1.99996" gradientUnits="userSpaceOnUse">
<stop offset="0.2" stop-color="#808080" stop-opacity="0.4"/>
<stop offset="0.46" stop-color="#808080" stop-opacity="0.5"/>
<stop offset="1" stop-opacity="0.6"/>
</linearGradient>
<clipPath id="clip0">
<rect width="662" height="446" fill="white"/>
</clipPath>
</defs>
</svg>
